<?xml version="1.0" standalone="no"?>
<!DOCTYPE svg PUBLIC "-//W3C//DTD SVG 20010904//EN"
 "http://www.w3.org/TR/2001/REC-SVG-20010904/DTD/svg10.dtd">
<svg version="1.0" xmlns="http://www.w3.org/2000/svg"
 width="1366.000000pt" height="627.000000pt" viewBox="0 0 1366.000000 627.000000"
 preserveAspectRatio="xMidYMid meet">

<g transform="translate(0.000000,627.000000) scale(0.100000,-0.100000)"
fill="#000000" stroke="none">
<path d="M1870 4405 l0 -555 493 0 c491 0 492 0 531 23 22 12 49 35 60 50 21
28 21 39 24 533 l3 504 -556 0 -555 0 0 -555z"/>
<path d="M3132 4469 c3 -551 1 -529 75 -586 l36 -28 504 -3 503 -3 0 44 c0
111 -55 327 -112 442 -51 102 -136 220 -215 299 -84 84 -232 187 -339 235
-100 44 -251 81 -362 88 l-93 6 3 -494z"/>
<path d="M4400 4405 l0 -555 560 0 560 0 0 555 0 555 -560 0 -560 0 0 -555z"/>
<path d="M5670 4404 l0 -557 88 6 c310 22 616 189 802 438 134 180 199 357
224 612 l6 57 -560 0 -560 0 0 -556z"/>
<path d="M6940 4406 l0 -556 556 0 557 0 -6 93 c-31 523 -489 980 -1014 1014
l-93 6 0 -557z"/>
<path d="M8210 4405 l0 -555 555 0 555 0 0 555 0 555 -555 0 -555 0 0 -555z"/>
<path d="M10389 4944 c-97 -17 -201 -54 -312 -112 -200 -102 -352 -249 -463
-448 -76 -136 -134 -341 -134 -473 l0 -61 492 0 491 0 45 26 c83 49 82 38 82
597 l0 487 -62 -1 c-35 0 -97 -7 -139 -15z"/>
<path d="M10740 4488 c0 -295 4 -487 10 -510 14 -48 55 -97 97 -114 26 -11
126 -14 488 -14 l455 0 0 555 0 555 -525 0 -525 0 0 -472z"/>
<path d="M1870 3135 l0 -555 493 0 c492 0 492 0 532 23 22 12 50 40 62 62 l23
40 -2 441 -3 441 -29 37 c-51 67 -41 66 -586 66 l-490 0 0 -555z"/>
<path d="M3235 3676 c-37 -16 -82 -67 -93 -104 -4 -15 -7 -216 -7 -447 0 -469
-2 -456 72 -512 l36 -28 504 -3 503 -3 0 556 0 555 -492 0 c-387 -1 -500 -4
-523 -14z"/>
<path d="M4400 3135 l0 -555 560 0 560 0 0 555 0 555 -560 0 -560 0 0 -555z"/>
<path d="M5670 3135 l0 -555 560 0 560 0 0 555 0 555 -560 0 -560 0 0 -555z"/>
<path d="M6940 3135 l0 -555 558 0 557 0 1 555 0 555 -558 0 -558 0 0 -555z"/>
<path d="M8210 3135 l0 -555 555 0 555 0 0 555 0 555 -555 0 -555 0 0 -555z"/>
<path d="M9484 3593 c25 -371 263 -723 601 -891 147 -73 331 -122 456 -122
l49 0 0 488 0 489 -23 44 c-15 27 -38 52 -63 66 -39 23 -40 23 -533 23 l-494
0 7 -97z"/>
<path d="M10740 3218 c0 -295 4 -487 10 -510 14 -48 55 -97 97 -114 26 -11
126 -14 488 -14 l455 0 0 195 0 195 -40 82 c-105 220 -269 393 -481 507 -138
74 -341 131 -470 131 l-59 0 0 -472z"/>
<path d="M1870 1865 l0 -555 555 0 556 0 -3 503 -3 504 -29 37 c-51 67 -41 66
-586 66 l-490 0 0 -555z"/>
<path d="M3240 2409 c-33 -13 -68 -47 -88 -84 -15 -27 -17 -87 -20 -522 l-3
-493 53 0 c128 0 329 54 463 123 204 106 384 288 486 489 62 123 119 340 119
454 l0 44 -492 -1 c-303 0 -503 -4 -518 -10z"/>
<path d="M4400 1864 l0 -557 93 7 c240 16 487 125 664 290 215 201 332 442
358 739 l7 77 -561 0 -561 0 0 -556z"/>
<path d="M6940 1865 l0 -555 558 0 558 0 0 555 0 555 -558 0 -558 0 0 -555z"/>
<path d="M8213 2333 c22 -326 207 -644 482 -830 165 -112 408 -193 576 -193
l49 0 0 555 0 555 -556 0 -557 0 6 -87z"/>
<path d="M9472 1865 l1 -555 558 0 559 0 0 488 0 489 -23 44 c-15 27 -38 52
-63 66 -39 23 -40 23 -535 23 l-497 0 0 -555z"/>
<path d="M10835 2401 c-40 -24 -61 -49 -80 -94 -13 -31 -15 -107 -15 -517 l0
-480 58 0 c191 2 446 94 619 226 140 107 242 231 326 397 l42 82 3 203 3 202
-463 0 c-433 0 -465 -1 -493 -19z"/>
</g>
</svg>
