<?xml version="1.0" encoding="UTF-8"?>
<!DOCTYPE svg PUBLIC "-//W3C//DTD SVG 1.1//EN" "http://www.w3.org/Graphics/SVG/1.1/DTD/svg11.dtd">
<svg xmlns="http://www.w3.org/2000/svg" version="1.1" width="1044px" height="270px" style="shape-rendering:geometricPrecision; text-rendering:geometricPrecision; image-rendering:optimizeQuality; fill-rule:evenodd; clip-rule:evenodd" xmlns:xlink="http://www.w3.org/1999/xlink">
<g><path style="opacity:0.983" fill="#40c5ef" d="M 118.5,-0.5 C 129.5,-0.5 140.5,-0.5 151.5,-0.5C 204.962,8.12324 242.129,37.4566 263,87.5C 277.086,130.486 271.752,170.819 247,208.5C 243.375,214.06 239.042,219.06 234,223.5C 209.305,198.472 184.305,173.805 159,149.5C 158.333,148.833 158.333,148.167 159,147.5C 176.244,153.359 193.577,159.026 211,164.5C 214.901,158.131 217.234,151.131 218,143.5C 220.472,105.684 205.305,77.517 172.5,59C 133.403,43.0187 99.2367,50.1854 70,80.5C 49.6097,107.32 45.9431,136.32 59,167.5C 79.4092,204.219 110.576,219.386 152.5,213C 166.649,209.758 179.316,203.592 190.5,194.5C 215.881,219.548 241.214,244.548 266.5,269.5C 265.5,269.5 264.5,269.5 263.5,269.5C 244.702,261.61 225.702,253.944 206.5,246.5C 157.009,273.756 108.009,272.923 59.5,244C 25.6921,220.893 5.69205,189.059 -0.5,148.5C -0.5,137.833 -0.5,127.167 -0.5,116.5C 12.3691,50.2979 52.0358,11.2979 118.5,-0.5 Z"/></g>
<g><path style="opacity:0.924" fill="#fefffe" d="M 519.5,65.5 C 533.938,65.4186 538.772,72.0853 534,85.5C 528.49,91.0431 522.323,91.8764 515.5,88C 508.157,78.8882 509.49,71.3882 519.5,65.5 Z"/></g>
<g><path style="opacity:0.929" fill="#fefffe" d="M 616.5,65.5 C 623.5,65.5 630.5,65.5 637.5,65.5C 637.5,87.5 637.5,109.5 637.5,131.5C 639.989,131.702 642.323,131.202 644.5,130C 651.833,121 659.167,112 666.5,103C 668.087,102.138 669.754,101.471 671.5,101C 677.859,100.169 684.193,100.336 690.5,101.5C 681.063,113.773 671.063,125.607 660.5,137C 671.447,151.06 681.78,165.56 691.5,180.5C 684.189,181.665 676.856,181.831 669.5,181C 661.167,169.333 652.833,157.667 644.5,146C 642.19,145.503 639.857,145.337 637.5,145.5C 637.5,157.5 637.5,169.5 637.5,181.5C 630.5,181.5 623.5,181.5 616.5,181.5C 616.5,142.833 616.5,104.167 616.5,65.5 Z"/></g>
<g><path style="opacity:0.936" fill="#fefffe" d="M 940.5,65.5 C 947.5,65.5 954.5,65.5 961.5,65.5C 961.5,104.167 961.5,142.833 961.5,181.5C 956.156,181.666 950.823,181.499 945.5,181C 943.655,178.149 942.489,174.982 942,171.5C 931.808,182.382 919.642,185.548 905.5,181C 894.561,174.704 888.394,165.204 887,152.5C 883.589,133.735 888.756,117.902 902.5,105C 914.988,97.5145 927.321,97.6812 939.5,105.5C 940.499,92.1833 940.833,78.85 940.5,65.5 Z M 919.5,115.5 C 923.846,115.334 928.179,115.501 932.5,116C 935.562,117.061 938.062,118.894 940,121.5C 940.667,133.833 940.667,146.167 940,158.5C 933.361,166.401 925.194,168.568 915.5,165C 911.051,161.603 908.551,157.103 908,151.5C 906.405,141.056 907.739,131.056 912,121.5C 914.114,118.879 916.614,116.879 919.5,115.5 Z"/></g>
<g><path style="opacity:0.954" fill="#fefffe" d="M 359.5,66.5 C 384.347,65.8321 402.847,76.1655 415,97.5C 423.413,118.855 422.079,139.522 411,159.5C 407.352,164.315 403.185,168.648 398.5,172.5C 407.649,182.817 416.982,192.983 426.5,203C 417.424,203.913 408.424,203.58 399.5,202C 392.801,195.636 386.468,188.969 380.5,182C 355.601,187.296 334.435,180.796 317,162.5C 306.712,147.736 303.045,131.403 306,113.5C 312.511,84.8167 330.344,69.15 359.5,66.5 Z M 357.5,85.5 C 384.243,85.2416 397.91,98.5749 398.5,125.5C 395.336,157.923 378.003,169.757 346.5,161C 333.097,152.865 326.763,140.865 327.5,125C 327.075,103.605 337.075,90.4381 357.5,85.5 Z"/></g>
<g><path style="opacity:0.968" fill="#fefffe" d="M 698.5,68.5 C 703.844,68.334 709.177,68.5006 714.5,69C 734.787,94.4091 754.954,119.909 775,145.5C 775.5,119.835 775.667,94.1688 775.5,68.5C 781.833,68.5 788.167,68.5 794.5,68.5C 794.5,106.167 794.5,143.833 794.5,181.5C 789.156,181.666 783.823,181.499 778.5,181C 757.954,156.122 737.787,130.955 718,105.5C 717.5,130.831 717.333,156.164 717.5,181.5C 711.167,181.5 704.833,181.5 698.5,181.5C 698.5,143.833 698.5,106.167 698.5,68.5 Z"/></g>
<g><path style="opacity:0.94" fill="#fefffe" d="M 576.5,99.5 C 587.382,98.6411 597.382,101.141 606.5,107C 608.019,108.351 609.352,109.851 610.5,111.5C 608.407,115.712 605.407,119.045 601.5,121.5C 574.726,109.153 562.226,117.82 564,147.5C 566.481,163.653 575.648,169.819 591.5,166C 594.788,163.699 598.288,161.866 602,160.5C 606.257,162.254 609.424,165.254 611.5,169.5C 603.058,178.99 592.391,183.657 579.5,183.5C 555.224,180.215 542.891,166.215 542.5,141.5C 542.627,118.07 553.96,104.07 576.5,99.5 Z"/></g>
<g><path style="opacity:0.948" fill="#fefffe" d="M 837.5,99.5 C 872.313,99.4865 887.48,116.82 883,151.5C 878.147,172.014 865.147,182.681 844,183.5C 821.038,182.704 807.705,171.038 804,148.5C 800.977,122.082 812.144,105.748 837.5,99.5 Z M 838.5,115.5 C 851.039,113.343 858.872,118.343 862,130.5C 864.072,138.927 863.738,147.261 861,155.5C 856.945,164.947 849.778,168.78 839.5,167C 830.726,164.549 825.892,158.716 825,149.5C 823.484,140.026 824.817,131.026 829,122.5C 831.529,119.115 834.696,116.782 838.5,115.5 Z"/></g>
<g><path style="opacity:0.936" fill="#fefffe" d="M 1043.5,126.5 C 1043.5,131.833 1043.5,137.167 1043.5,142.5C 1042.71,142.783 1042.04,143.283 1041.5,144C 1024.17,144.333 1006.83,144.667 989.5,145C 991.062,160.776 999.728,168.109 1015.5,167C 1021.62,165.105 1027.62,162.938 1033.5,160.5C 1034.5,160.667 1035.5,160.833 1036.5,161C 1038.5,163.86 1040.84,166.36 1043.5,168.5C 1043.5,169.167 1043.5,169.833 1043.5,170.5C 1027.52,183.435 1009.85,186.268 990.5,179C 976.196,170.065 969.196,157.065 969.5,140C 972.436,109.397 989.103,96.3968 1019.5,101C 1032.22,105.217 1040.22,113.717 1043.5,126.5 Z M 1003.5,114.5 C 1016.73,112.739 1024.06,118.406 1025.5,131.5C 1013.83,131.5 1002.17,131.5 990.5,131.5C 991.512,123.17 995.845,117.503 1003.5,114.5 Z"/></g>
<g><path style="opacity:0.951" fill="#fefffe" d="M 427.5,100.5 C 434.167,100.5 440.833,100.5 447.5,100.5C 447.333,118.836 447.5,137.17 448,155.5C 448.95,163.145 453.283,167.145 461,167.5C 467.703,166.937 473.37,164.271 478,159.5C 478.5,139.836 478.667,120.169 478.5,100.5C 485.167,100.5 491.833,100.5 498.5,100.5C 498.5,127.5 498.5,154.5 498.5,181.5C 493.156,181.666 487.823,181.499 482.5,181C 481.257,178.51 480.09,176.01 479,173.5C 464.912,185.72 450.412,186.387 435.5,175.5C 431.172,170.699 428.672,165.032 428,158.5C 427.5,139.17 427.333,119.836 427.5,100.5 Z"/></g>
<g><path style="opacity:0.957" fill="#fefffe" d="M 513.5,100.5 C 520.167,100.5 526.833,100.5 533.5,100.5C 533.5,127.5 533.5,154.5 533.5,181.5C 526.833,181.5 520.167,181.5 513.5,181.5C 513.5,154.5 513.5,127.5 513.5,100.5 Z"/></g>
</svg>
