<?xml version="1.0" standalone="no"?>
<!DOCTYPE svg PUBLIC "-//W3C//DTD SVG 20010904//EN"
 "http://www.w3.org/TR/2001/REC-SVG-20010904/DTD/svg10.dtd">
<svg version="1.0" xmlns="http://www.w3.org/2000/svg"
 width="280.000000pt" height="280.000000pt" viewBox="0 0 280.000000 280.000000"
 preserveAspectRatio="xMidYMid meet">

<g transform="translate(0.000000,280.000000) scale(0.100000,-0.100000)"
fill="#000000" stroke="none">
<path d="M54 2781 c-17 -10 -36 -32 -42 -47 -9 -22 -12 -350 -10 -1352 l3
-1324 33 -29 32 -29 1331 0 1331 0 34 34 34 34 0 1331 0 1331 -29 32 -29 33
-1329 3 c-1286 2 -1329 1 -1359 -17z m1650 -526 c71 -20 502 -141 554 -155 23
-6 42 -16 42 -23 0 -10 -118 -79 -409 -238 -36 -20 -109 -60 -161 -89 -52 -29
-113 -63 -135 -75 -104 -56 -155 -88 -155 -96 0 -4 14 -32 31 -61 32 -55 151
-264 199 -353 15 -27 55 -99 90 -158 34 -59 60 -113 57 -120 -3 -7 -22 -21
-43 -32 -22 -10 -79 -42 -129 -70 -49 -29 -117 -67 -150 -85 -33 -18 -89 -50
-125 -70 -36 -21 -94 -53 -130 -72 l-65 -35 -65 18 c-272 77 -568 158 -584
161 -42 7 -23 29 71 81 54 30 145 80 203 113 58 32 123 68 145 80 155 82 382
208 389 215 12 11 -19 73 -144 289 -24 41 -54 94 -67 118 -12 24 -49 89 -82
145 -92 160 -87 143 -44 170 36 23 223 130 328 188 28 15 106 59 175 98 68 39
131 71 139 71 8 0 37 -7 65 -15z"/>
<path d="M1540 2110 c-33 -21 -256 -147 -265 -151 -34 -14 -165 -92 -165 -99
0 -8 184 -158 204 -166 6 -2 17 6 25 18 87 137 241 394 241 402 0 9 -23 6 -40
-4z"/>
<path d="M1289 1004 c-6 -16 -17 -56 -25 -89 -8 -33 -27 -104 -43 -158 -16
-54 -25 -100 -20 -103 8 -5 106 48 408 221 30 17 56 36 58 42 4 12 -50 31
-227 77 -52 14 -105 28 -117 32 -18 5 -25 1 -34 -22z"/>
</g>
</svg>
